<?xml version="1.0" standalone="no"?>
<!DOCTYPE svg PUBLIC "-//W3C//DTD SVG 20010904//EN"
 "http://www.w3.org/TR/2001/REC-SVG-20010904/DTD/svg10.dtd">
<svg version="1.0" xmlns="http://www.w3.org/2000/svg"
 width="512.000000pt" height="512.000000pt" viewBox="0 0 512.000000 512.000000"
 preserveAspectRatio="xMidYMid meet">
<metadata>
Created by potrace 1.11, written by Peter Selinger 2001-2013
</metadata>
<g transform="translate(0.000000,512.000000) scale(0.100000,-0.100000)"
fill="#000000" stroke="none">
<path d="M363 5105 c-169 -46 -304 -181 -348 -350 -13 -52 -15 -314 -15 -2194
0 -2079 1 -2137 19 -2178 14 -30 31 -48 60 -62 40 -21 49 -21 1195 -21 l1155
0 78 -53 c43 -29 119 -72 168 -96 50 -23 97 -47 106 -51 34 -18 238 -70 324
-84 136 -21 384 -15 509 13 282 64 514 190 712 386 129 127 208 235 283 386
148 294 191 619 127 949 -4 19 -23 86 -43 148 l-36 113 226 227 c242 244 248
253 233 337 -13 69 -53 95 -251 159 -99 33 -185 64 -192 70 -7 6 -39 91 -72
189 -32 98 -67 189 -76 203 -25 39 -97 67 -148 59 -38 -7 -63 -28 -272 -236
l-230 -228 -83 29 c-109 39 -262 70 -384 77 l-98 6 0 649 c0 356 3 648 8 649
4 0 81 1 172 2 192 2 219 11 258 87 21 42 22 53 19 240 -4 170 -7 203 -26 259
-41 119 -117 211 -222 269 -118 66 -13 62 -1633 61 -1231 0 -1480 -3 -1523
-14z"/>
</g>
</svg>
